<svg width="32" height="32" viewBox="0 0 40 40" fill="none" xmlns="http://www.w3.org/2000/svg">
  <rect width="40" height="40" rx="8" fill="url(#gradient)"/>
  <defs>
    <linearGradient id="gradient" x1="0" y1="0" x2="40" y2="40" gradientUnits="userSpaceOnUse">
      <stop offset="0%" stop-color="#2563eb"/>
      <stop offset="100%" stop-color="#4f46e5"/>
    </linearGradient>
  </defs>
  <!-- Design moderne "itkane" - Lettre "i" avec point -->
  <circle cx="20" cy="8" r="2.5" fill="white"/>
  <!-- Barre verticale du "i" -->
  <rect x="18" y="12" width="4" height="16" rx="2" fill="white"/>
  <!-- Ligne courbe stylisťe pour "tkane" -->
  <path
    d="M20 28 C22 28, 24 27, 26 26 C28 25, 30 23, 30 21 C30 19, 28 17, 26 17 C24 17, 22 18, 20 20"
    stroke="white"
    stroke-width="2.5"
    stroke-linecap="round"
    stroke-linejoin="round"
    fill="none"
  />
  <!-- Petite ťtoile dťcorative -->
  <path
    d="M28 14 L28.5 15.5 L30 15.5 L28.8 16.5 L29.2 18 L28 17 L26.8 18 L27.2 16.5 L26 15.5 L27.5 15.5 Z"
    fill="white"
    opacity="0.8"
  />
</svg>
